# xmcd
#
# Track frame offsets:
#	150
#	22270
#	37190
#	52208
#	67376
#	89527
#	105409
#	127414
#	145682
#	169756
#	187463
#
# Disc length: 2702 seconds
#
# Revision: 1
# Processed by: cddbd v1.5.2PL0 Copyright (c) Steve Scherf et al.
# Submitted via: audiograbber 1.83.01
#
DISCID=b80a8c0b
DTITLE=Gary Allen White - By The Roadside
DYEAR=2008
DGENRE=
TTITLE0=Feel The Fright
TTITLE1=By The Roadside
TTITLE2=Jess
TTITLE3=The Way It Was
TTITLE4=Only You
TTITLE5=One True Love
TTITLE6=Wastin' Time
TTITLE7=Be Your Man
TTITLE8=You're My Everything
TTITLE9=Irish Blues
TTITLE10=Only For A While
EXTD=
EXTT0=
EXTT1=
EXTT2=
EXTT3=
EXTT4=
EXTT5=
EXTT6=
EXTT7=
EXTT8=
EXTT9=
EXTT10=
PLAYORDER=
